<?xml version="1.0" encoding="utf-8" standalone="no"?>
<!DOCTYPE svg PUBLIC "-//W3C//DTD SVG 1.1//EN"
  "http://www.w3.org/Graphics/SVG/1.1/DTD/svg11.dtd">
<!-- Created with matplotlib (https://matplotlib.org/) -->
<svg height="288pt" version="1.1" viewBox="0 0 288 288" width="288pt" xmlns="http://www.w3.org/2000/svg" xmlns:xlink="http://www.w3.org/1999/xlink">
 <defs>
  <style type="text/css">
*{stroke-linecap:butt;stroke-linejoin:round;}
  </style>
 </defs>
 <g id="figure_1">
  <g id="patch_1">
   <path d="M 0 288 
L 288 288 
L 288 0 
L 0 0 
z
" style="fill:#ffffff;"/>
  </g>
  <g id="axes_1">
   <g id="LineCollection_1">
    <path clip-path="url(#p9eb10b296c)" d="M 118.766156 274.909091 
L 115.419921 255.445736 
" style="fill:none;stroke:#472a7a;stroke-width:4;"/>
    <path clip-path="url(#p9eb10b296c)" d="M 115.419921 255.445736 
L 112.826906 230.715832 
" style="fill:none;stroke:#472a7a;stroke-width:4;"/>
    <path clip-path="url(#p9eb10b296c)" d="M 112.826906 230.715832 
L 111.348641 202.436466 
" style="fill:none;stroke:#414487;stroke-width:4;"/>
    <path clip-path="url(#p9eb10b296c)" d="M 111.348641 202.436466 
L 111.073435 171.92615 
" style="fill:none;stroke:#2a788e;stroke-width:4;"/>
    <path clip-path="url(#p9eb10b296c)" d="M 111.073435 171.92615 
L 112.116411 139.236809 
" style="fill:none;stroke:#cae11f;stroke-width:4;"/>
    <path clip-path="url(#p9eb10b296c)" d="M 112.116411 139.236809 
L 142.651549 129.88265 
" style="fill:none;stroke:#cae11f;stroke-width:4;"/>
    <path clip-path="url(#p9eb10b296c)" d="M 112.116411 139.236809 
L 86.680779 116.057974 
" style="fill:none;stroke:#440154;stroke-width:4;"/>
    <path clip-path="url(#p9eb10b296c)" d="M 142.651549 129.88265 
L 173.417243 124.381005 
" style="fill:none;stroke:#2e6f8e;stroke-width:4;"/>
    <path clip-path="url(#p9eb10b296c)" d="M 173.417243 124.381005 
L 202.748221 121.302521 
" style="fill:none;stroke:#453781;stroke-width:4;"/>
    <path clip-path="url(#p9eb10b296c)" d="M 202.748221 121.302521 
L 230.747353 120.973634 
" style="fill:none;stroke:#481d6f;stroke-width:4;"/>
    <path clip-path="url(#p9eb10b296c)" d="M 230.747353 120.973634 
L 255.662963 122.335826 
" style="fill:none;stroke:#481d6f;stroke-width:4;"/>
    <path clip-path="url(#p9eb10b296c)" d="M 255.662963 122.335826 
L 274.909091 125.488533 
" style="fill:none;stroke:#472a7a;stroke-width:4;"/>
    <path clip-path="url(#p9eb10b296c)" d="M 86.680779 116.057974 
L 56.119243 126.809246 
" style="fill:none;stroke:#fde725;stroke-width:4;"/>
    <path clip-path="url(#p9eb10b296c)" d="M 86.680779 116.057974 
L 94.715727 84.109339 
" style="fill:none;stroke:#cae11f;stroke-width:4;"/>
    <path clip-path="url(#p9eb10b296c)" d="M 56.119243 126.809246 
L 31.318063 140.759318 
" style="fill:none;stroke:#228b8d;stroke-width:4;"/>
    <path clip-path="url(#p9eb10b296c)" d="M 31.318063 140.759318 
L 13.090909 153.475858 
" style="fill:none;stroke:#375a8c;stroke-width:4;"/>
    <path clip-path="url(#p9eb10b296c)" d="M 94.715727 84.109339 
L 107.802092 56.5168 
" style="fill:none;stroke:#26828e;stroke-width:4;"/>
    <path clip-path="url(#p9eb10b296c)" d="M 107.802092 56.5168 
L 120.928465 32.798392 
" style="fill:none;stroke:#3c4f8a;stroke-width:4;"/>
    <path clip-path="url(#p9eb10b296c)" d="M 120.928465 32.798392 
L 129.044054 13.090909 
" style="fill:none;stroke:#453781;stroke-width:4;"/>
   </g>
   <g id="PathCollection_1">
    <defs>
     <path d="M 0 2.5 
C 0.663008 2.5 1.29895 2.236584 1.767767 1.767767 
C 2.236584 1.29895 2.5 0.663008 2.5 0 
C 2.5 -0.663008 2.236584 -1.29895 1.767767 -1.767767 
C 1.29895 -2.236584 0.663008 -2.5 0 -2.5 
C -0.663008 -2.5 -1.29895 -2.236584 -1.767767 -1.767767 
C -2.236584 -1.29895 -2.5 -0.663008 -2.5 0 
C -2.5 0.663008 -2.236584 1.29895 -1.767767 1.767767 
C -1.29895 2.236584 -0.663008 2.5 0 2.5 
z
" id="m15fc970bf0" style="stroke:#ff0000;"/>
    </defs>
    <g clip-path="url(#p9eb10b296c)">
     <use style="fill:#ff0000;stroke:#ff0000;" x="118.766156" xlink:href="#m15fc970bf0" y="274.909091"/>
     <use style="fill:#ff0000;stroke:#ff0000;" x="115.419921" xlink:href="#m15fc970bf0" y="255.445736"/>
     <use style="fill:#ff0000;stroke:#ff0000;" x="112.826906" xlink:href="#m15fc970bf0" y="230.715832"/>
     <use style="fill:#ff0000;stroke:#ff0000;" x="111.348641" xlink:href="#m15fc970bf0" y="202.436466"/>
     <use style="fill:#ff0000;stroke:#ff0000;" x="111.073435" xlink:href="#m15fc970bf0" y="171.92615"/>
     <use style="fill:#ff0000;stroke:#ff0000;" x="112.116411" xlink:href="#m15fc970bf0" y="139.236809"/>
     <use style="fill:#ff0000;stroke:#ff0000;" x="142.651549" xlink:href="#m15fc970bf0" y="129.88265"/>
     <use style="fill:#ff0000;stroke:#ff0000;" x="173.417243" xlink:href="#m15fc970bf0" y="124.381005"/>
     <use style="fill:#ff0000;stroke:#ff0000;" x="202.748221" xlink:href="#m15fc970bf0" y="121.302521"/>
     <use style="fill:#ff0000;stroke:#ff0000;" x="230.747353" xlink:href="#m15fc970bf0" y="120.973634"/>
     <use style="fill:#ff0000;stroke:#ff0000;" x="255.662963" xlink:href="#m15fc970bf0" y="122.335826"/>
     <use style="fill:#ff0000;stroke:#ff0000;" x="274.909091" xlink:href="#m15fc970bf0" y="125.488533"/>
     <use style="fill:#ff0000;stroke:#ff0000;" x="86.680779" xlink:href="#m15fc970bf0" y="116.057974"/>
     <use style="fill:#ff0000;stroke:#ff0000;" x="56.119243" xlink:href="#m15fc970bf0" y="126.809246"/>
     <use style="fill:#ff0000;stroke:#ff0000;" x="31.318063" xlink:href="#m15fc970bf0" y="140.759318"/>
     <use style="fill:#ff0000;stroke:#ff0000;" x="13.090909" xlink:href="#m15fc970bf0" y="153.475858"/>
     <use style="fill:#ff0000;stroke:#ff0000;" x="94.715727" xlink:href="#m15fc970bf0" y="84.109339"/>
     <use style="fill:#ff0000;stroke:#ff0000;" x="107.802092" xlink:href="#m15fc970bf0" y="56.5168"/>
     <use style="fill:#ff0000;stroke:#ff0000;" x="120.928465" xlink:href="#m15fc970bf0" y="32.798392"/>
     <use style="fill:#ff0000;stroke:#ff0000;" x="129.044054" xlink:href="#m15fc970bf0" y="13.090909"/>
    </g>
   </g>
  </g>
 </g>
 <defs>
  <clipPath id="p9eb10b296c">
   <rect height="288" width="288" x="0" y="0"/>
  </clipPath>
 </defs>
</svg>
